<svg xmlns="http://www.w3.org/2000/svg" viewBox="0 0 32 32">
  <defs>
    <linearGradient id="g1" x1="0%" y1="0%" x2="100%" y2="100%">
      <stop offset="0%" stop-color="#3e63ff"/>
      <stop offset="100%" stop-color="#c7a05f"/>
    </linearGradient>
    <linearGradient id="g2" x1="0%" y1="0%" x2="100%" y2="100%">
      <stop offset="0%" stop-color="#5b82ff"/>
      <stop offset="100%" stop-color="#3e63ff"/>
    </linearGradient>
  </defs>
  <!-- Background circle -->
  <circle cx="16" cy="16" r="15" fill="url(#g1)"/>
  <!-- Letter S stylized -->
  <path d="M11 10.5 C11 9 12.5 8 14.5 8 L19 8 C20.5 8 21.5 9 21.5 10.5 C21.5 12 20 13 18 13 L14 13 C12 13 10.5 14 10.5 15.5 C10.5 17 12 18 14 18 L19.5 18 C21 18 22 19 21.5 20.5 C21 22 19.5 23.5 17 23.5 L12.5 23.5" 
        fill="none" stroke="white" stroke-width="2.2" stroke-linecap="round"/>
  <!-- Gold accent dot -->
  <circle cx="24" cy="8" r="2.5" fill="#c7a05f"/>
</svg>
