<?xml version="1.0" encoding="UTF-8"?>
<svg id="_Слой_1" data-name="Слой_1" xmlns="http://www.w3.org/2000/svg" version="1.1" xmlns:xlink="http://www.w3.org/1999/xlink" viewBox="0 0 250 178">
  <!-- Generator: Adobe Illustrator 29.7.1, SVG Export Plug-In . SVG Version: 2.1.1 Build 8)  -->
  <defs>
    <style>
      .st0 {
        fill: url(#_Безымянный_градиент_5);
      }

      .st1 {
        fill: url(#_Безымянный_градиент_7);
      }

      .st2 {
        fill: #24246e;
      }

      .st3 {
        fill: url(#_Безымянный_градиент_9);
      }

      .st4 {
        fill: #3a3a3a;
        isolation: isolate;
        opacity: .5;
      }

      .st5 {
        fill: url(#_Безымянный_градиент_2);
      }

      .st6 {
        fill: url(#_Безымянный_градиент);
      }

      .st7 {
        fill: url(#_Безымянный_градиент_8);
      }

      .st8 {
        fill: url(#_Безымянный_градиент_3);
      }

      .st9 {
        fill: url(#_Безымянный_градиент_6);
      }
    </style>
    <linearGradient id="_Безымянный_градиент" data-name="Безымянный градиент" x1="55.58" y1="168.65" x2="190.18" y2="168.65" gradientTransform="translate(0 177.89) scale(1 -1)" gradientUnits="userSpaceOnUse">
      <stop offset="0" stop-color="#24246e"/>
      <stop offset=".51" stop-color="#004b8d"/>
      <stop offset="1" stop-color="#008bae"/>
    </linearGradient>
    <linearGradient id="_Безымянный_градиент_2" data-name="Безымянный градиент 2" x1="55.52" y1="129.85" x2="120.19" y2="129.85" gradientTransform="translate(0 177.89) scale(1 -1)" gradientUnits="userSpaceOnUse">
      <stop offset="0" stop-color="#24246e"/>
      <stop offset=".51" stop-color="#004389"/>
      <stop offset="1" stop-color="#003371"/>
    </linearGradient>
    <linearGradient id="_Безымянный_градиент_3" data-name="Безымянный градиент 3" x1="38.38" y1="121.39" x2="189.99" y2="121.39" gradientTransform="translate(0 177.89) scale(1 -1)" gradientUnits="userSpaceOnUse">
      <stop offset="0" stop-color="#00549e"/>
      <stop offset=".51" stop-color="#00d1c9"/>
      <stop offset="1" stop-color="#008bae"/>
    </linearGradient>
    <linearGradient id="_Безымянный_градиент_5" data-name="Безымянный градиент 5" x1="130.29" y1="81.18" x2="189.89" y2="81.18" gradientTransform="translate(0 177.89) scale(1 -1)" gradientUnits="userSpaceOnUse">
      <stop offset="0" stop-color="#0082a8"/>
      <stop offset=".51" stop-color="#00d1c9"/>
      <stop offset="1" stop-color="#00d1c9"/>
    </linearGradient>
    <linearGradient id="_Безымянный_градиент_6" data-name="Безымянный градиент 6" x1="55.79" y1="85.84" x2="130.13" y2="85.84" gradientTransform="translate(0 177.89) scale(1 -1)" gradientUnits="userSpaceOnUse">
      <stop offset="0" stop-color="#00669a"/>
      <stop offset=".51" stop-color="#008bae"/>
      <stop offset="1" stop-color="#0093ae"/>
    </linearGradient>
    <linearGradient id="_Безымянный_градиент_7" data-name="Безымянный градиент 7" x1="132.62" y1="109.26" x2="143.02" y2="109.26" gradientTransform="translate(-3.93 160.48) rotate(2.34) scale(1 -.9)" gradientUnits="userSpaceOnUse">
      <stop offset="0" stop-color="#ccc"/>
      <stop offset="1" stop-color="#707070"/>
    </linearGradient>
    <linearGradient id="_Безымянный_градиент_8" data-name="Безымянный градиент 8" x1="159.98" y1="110.09" x2="169.38" y2="110.09" gradientTransform="translate(-.98 173.26) rotate(.52) scale(1 -.97)" gradientUnits="userSpaceOnUse">
      <stop offset="0" stop-color="#ccc"/>
      <stop offset="1" stop-color="#707070"/>
    </linearGradient>
    <linearGradient id="_Безымянный_градиент_9" data-name="Безымянный градиент 9" x1="144.88" y1="110.02" x2="157.78" y2="110.02" gradientTransform="translate(-1.57 175.61) rotate(.82) scale(1 -1)" gradientUnits="userSpaceOnUse">
      <stop offset="0" stop-color="#ccc"/>
      <stop offset="1" stop-color="#707070"/>
    </linearGradient>
  </defs>
  <g>
    <path class="st6" d="M183.09.58H62.19c-4.94,0-6.61,6.04-6.61,8.01v9.3h134.6v-9.39c0-4.61-3.38-7.92-7.12-7.92h.03ZM154.68,11.44h-6.74c-1.44,0-2.16-.77-2.16-2.1,0-1.2.72-2.01,2.16-2.01h6.74c1.33,0,1.9.81,1.9,2.01,0,1.26-.57,2.1-1.9,2.1ZM168.61,13.29h-5.38c-1.33,0-1.83-.78-1.83-2.1v-3.78c0-1.42.5-2.19,1.83-2.19h4.95c1.33,0,1.83.77,1.83,2.11v3.86c0,1.32-.5,2.1-1.4,2.1ZM178.61,13.7c-3.45,0-3.95-3.35-3.95-4.36,0-2.05,1.67-4.49,4.2-4.49,2.81,0,4.14,2.44,4.14,4.49s-1.75,4.36-4.39,4.36Z"/>
    <path class="st5" d="M120.19,23.07v16.88c0,.62-.41,1.16-1.03,1.16h-39.21c-5.22,0-7.29,3.18-7.29,7.18,0,3.43,2.24,6.36,6.61,7.4l20.27,4.52c-5.7,5.64-12.61,10.65-17.83,12.8l-8.19-2.6c-10.74-3.01-18-10.89-18-21.79,0-13.28,10.16-25.55,26.02-25.55,0,0,38.65,0,38.65,0Z"/>
    <path class="st8" d="M189.99,23.07v18.21h-27.98c-16.95,0-28.19,12.52-42.35,27.04-12.82,13.28-25.95,21.85-43.97,21.6-14.83-.25-25.41-4.03-37.31-16.3,7.94,6.92,18.26,8.6,26.37,7.73,19.01-2.15,31.41-12.11,42.74-23.95,14.75-15.67,25.99-34.33,50.83-34.33,0,0,31.67,0,31.67,0Z"/>
    <path class="st0" d="M189.89,97.01v8.74c0,3.92-3.18,7.1-7.1,7.1h-26.11c-9.9,0-19.3-3.44-26.39-10.52,3.94-6.12,5.01-14.08,3.34-21.71,1.75-.33,2.91.89,3.66,3.12,3.37,8.65,9.49,13.02,20.98,13.02l31.62.25h0Z"/>
    <path class="st9" d="M122.29,71.33c6.21,5.47,8.2,13.19,7.36,20.9-1.74,11.76-11.64,20.53-26.05,20.53h-40.71c-3.92,0-7.1-3.18-7.1-7.1v-9.15h48.8c6.12,0,7.7-4.85,7.7-7.29s-.74-4.28-2.65-5.81c4.45-3.37,8.81-7.65,12.65-12.08h0Z"/>
    <g>
      <path class="st1" d="M140.79,60.6l-7.43,5.99c-1.03.84-1.06,1.72-.11,2.64l6.84,6.49c.87.86,3.07-.17,2.23-1.65l-4.99-5.55.02-.37,4.9-4.56c1.12-1.23.34-4.05-1.46-2.98h0Z"/>
      <path class="st7" d="M162.06,60.87c-.27-.24-1.07-.29-1.33-.04-.61.6-.74,1.34-.02,2.24l5.41,5.41v.4s-5.92,5.22-5.92,5.22c-.91,1.36,1.23,3,2.74,1.9l5.92-5.53c.99-.94.92-2.49-.14-3.37l-6.67-6.21Z"/>
      <path class="st3" d="M156.34,56.09h-.33c-.99-.02-1.5.57-1.94,1.74l-9.1,19.98c-.6,1.41.8,1.85,1.88,1.54h.34c.9.02,1.41-.96,1.85-2.02l8.55-18.63c.68-1.33.45-2.58-1.25-2.61Z"/>
    </g>
  </g>
  <g>
    <path class="st2" d="M14.41,146.7l-4.62-1.34c-1.66-.5-2.16-1.41-2.16-2.56,0-2.03,1.83-2.63,3.41-2.63,1.99,0,3.41.33,4.56.84.5.25,1.25.09,1.5-.76s0-1.7-.83-2.03c-1.33-.6-2.83-.85-4.98-.85-4.21,0-6.62,2.28-6.62,5.43,0,2.6,1.42,4.11,4.13,5.01l3.98,1.26c1.83.6,2.24,1.37,2.24,2.39,0,1.86-1.49,2.71-4.02,2.71-1.99,0-3.32-.51-4.57-1.11-.74-.41-1.73.09-1.98,1.11-.25.77.09,1.54.83,1.95,1.42.69,3.26,1.02,5.51,1.02,4.72,0,6.64-2.44,6.64-5.51,0-2.48-1.07-4.16-3.02-4.93Z"/>
    <path class="st2" d="M33.08,153.9h-9.06v-5.46h7.48c.9,0,1.32-.52,1.32-1.42,0-.77-.42-1.27-1.32-1.27h-7.48v-5.35h8.63c.9,0,1.4-.51,1.4-1.49,0-.77-.5-1.31-1.4-1.31h-10.56c-.9,0-1.4.54-1.4,1.48v16.14c0,.94.5,1.48,1.4,1.48h10.99c.9,0,1.4-.54,1.4-1.48,0-.77-.5-1.32-1.4-1.32h0Z"/>
    <path class="st2" d="M49.66,149.4c2.65-1.03,3.39-3.38,3.39-5.04,0-3.94-2.16-6.47-6.7-6.47h-6.44c-.99,0-1.57.58-1.57,1.6v15.97c0,1.02.58,1.56,1.48,1.56.99,0,1.57-.54,1.57-1.56v-5.55h5.04l3.53,6.3c.58,1.06,1.57,1.06,2.4.51.82-.55.98-1.48.33-2.51l-3.03-4.81h0ZM46.01,147.2h-4.62v-6.61h4.62c2.8,0,3.87,1.51,3.87,3.77,0,1.66-1.15,2.84-3.87,2.84Z"/>
    <path class="st2" d="M68.06,147.5h-2.89c-.91,0-1.41.51-1.41,1.28,0,.94.5,1.37,1.41,1.37h2.41v3.82c-.99.25-2.15.41-3.4.41-4.8,0-5.7-3.21-5.7-7.05,0-4.27,1.33-7.07,5.95-7.07,1.66,0,2.82.33,3.89.89.83.41,1.73,0,2.06-.93.34-.94-.08-1.62-.98-2.03-1.25-.6-2.81-.86-4.81-.86-6.44,0-8.77,3.94-8.77,10s2.16,9.69,8.69,9.69c2.24,0,4.23-.33,5.3-.85.91-.41.99-1.18.99-2.44v-4.53c0-1.25-.75-1.7-2.74-1.7Z"/>
    <path class="st2" d="M87.18,153.9h-8.54v-5.46h7.48c.9,0,1.32-.52,1.32-1.42,0-.77-.42-1.27-1.32-1.27h-7.48v-5.35h8.63c.9,0,1.4-.51,1.4-1.49,0-.77-.5-1.31-1.4-1.31h-9.62c-.9,0-1.56.54-1.56,1.48v16.14c0,.94.66,1.48,1.56,1.48h9.53c.91,0,1.41-.54,1.41-1.48,0-.77-.5-1.32-1.41-1.32h0Z"/>
    <path class="st2" d="M104.87,137.7c-.99-.43-1.89-.17-2.47.97l-4.36,8.27h-.17l-4.28-8.27c-.58-1.14-1.65-1.31-2.64-.88-.99.51-1.23,1.43-.57,2.58l6.36,10.31v4.68c0,1.03.58,1.57,1.48,1.57.99,0,1.57-.54,1.57-1.57v-5.02l5.95-10.14c.66-1.15.25-2.07-.87-2.5h0Z"/>
    <path class="st2" d="M124.67,140c1.41,0,2.57.33,3.56.84.9.51,1.8,0,2.05-.93.25-.85-.08-1.7-.99-2.11-1.24-.6-2.66-.85-4.49-.85-6.53,0-8.52,4.02-8.52,10.17s2.16,9.69,8.35,9.69c2,0,3.66-.33,4.91-1.01.91-.43,1.16-1.28.91-2.13-.34-.94-1.24-1.02-2.07-.52-.99.6-2.22.85-3.54.85-4.36,0-5.43-3.05-5.43-6.88,0-4.02.98-7.12,5.26-7.12Z"/>
    <path class="st2" d="M147.57,137.6c-.99,0-1.57.6-1.57,1.62v6.69h-8.45v-6.69c0-1.02-.58-1.62-1.57-1.62s-1.57.6-1.57,1.62v15.97c0,1.02.58,1.6,1.57,1.6s1.57-.58,1.57-1.6v-6.53h8.45v6.53c0,1.02.58,1.6,1.57,1.6s1.57-.58,1.57-1.6v-15.97c0-1.02-.58-1.62-1.57-1.62Z"/>
    <path class="st2" d="M163.37,139.2c-.5-1.34-1.24-1.51-2.23-1.51h-.33c-.9,0-1.48.34-1.9,1.51l-6.19,15.8c-.42,1.06.08,1.91,1.15,2,.99.08,1.65-.43,2.07-1.59l1.33-3.52h8.1l1.42,3.76c.42,1.15,1.16,1.48,2.23,1.23.99-.25,1.41-1.19.91-2.43l-6.56-15.25h0ZM158.33,149.36l3.05-8.19h.09l3.05,8.19h-6.19Z"/>
    <path class="st2" d="M186.07,137.6c-.99,0-1.57.6-1.57,1.62v10.43c0,2.8-1.42,4.57-4.31,4.57s-4.22-1.68-4.22-4.57v-10.43c0-1.02-.58-1.62-1.57-1.62s-1.57.6-1.57,1.62v10.26c0,4.9,2.56,7.53,7.36,7.53s7.45-2.63,7.45-7.53v-10.26c0-1.02-.58-1.62-1.57-1.62h0Z"/>
    <path class="st2" d="M204.47,153.8h-9.14l9.7-13.37c.82-1.15.57-2.76-.92-2.76h-11.17c-.99,0-1.57.54-1.57,1.31,0,.94.58,1.45,1.57,1.45h8.54l-9.62,13.37c-.9,1.25-.82,2.97.75,2.97h11.86c.99,0,1.57-.54,1.57-1.48s-.58-1.49-1.57-1.49Z"/>
    <path class="st2" d="M217.27,137.5c-6.53,0-8.6,3.65-8.6,9.79s1.74,9.67,8.27,9.67,8.86-3.48,8.86-9.67-2.16-9.79-8.53-9.79ZM217.11,154.3c-4.46,0-5.45-3.17-5.45-7.01,0-4.06,1.07-7.12,5.61-7.12s5.45,3.15,5.45,7.12-1.25,7.01-5.61,7.01Z"/>
    <path class="st2" d="M244.07,137.7c-.99-.25-1.73.26-2.15,1.44l-5.3,14.6h-.17l-5.29-14.85c-.42-1.15-1.32-1.49-2.31-1.15-.99.41-1.33,1.27-.83,2.51l6.62,15.19c.58,1.34,1.4,1.59,2.47,1.59h.25c.99,0,1.65-.51,2.15-1.84l5.95-15.11c.5-1.25-.08-2.19-1.39-2.38Z"/>
  </g>
  <g>
    <path class="st4" d="M59.03,166.64l-3.06,10.2h-.25l-2.89-9.7h-1.07l-2.81,9.7h-.25l-3.05-10.2h-1.07l3.54,11.24h1.49l2.72-9.31,2.81,9.31h1.57l3.46-11.24h-1.14Z"/>
    <path class="st4" d="M71.09,176.94h-5.62v-4.35h4.96v-.94h-4.96v-4.05h5.37c.42,0,.66-.21.66-.54,0-.37-.24-.57-.66-.57h-5.87c-.42,0-.66.25-.66.73v9.93c0,.46.24.75.66.75h6.12c.42,0,.67-.25.67-.62,0-.29-.25-.34-.67-.34h0Z"/>
    <path class="st4" d="M83.17,172.04c1.25-.5,1.67-1.65,1.67-2.68,0-1.75-1.16-2.94-3.69-2.94h-4.12c-.42,0-.67.25-.67.73v9.93c0,.46.25.75.67.75h4.45c2.45,0,3.6-1.25,3.6-3.11,0-1.25-.66-2.28-1.91-2.68h0ZM77.52,167.36h3.63c1.83,0,2.58.9,2.58,2.17,0,1.15-.75,2.26-2.58,2.26h-3.63v-4.43ZM81.32,176.83h-3.8v-4.18h3.8c1.83,0,2.66.94,2.66,2.11,0,1.25-.83,2.07-2.66,2.07h0Z"/>
    <path class="st4" d="M100.23,166.34h-2.89c-.5,0-.75.29-.75.84v9.82c0,.5.25.79.75.79h2.81c4.2,0,5.62-2.07,5.62-5.75s-1.42-5.7-5.54-5.7h0ZM100.07,176.79h-2.31v-9.47h2.31c3.45,0,4.61,1.91,4.61,4.8s-1.24,4.67-4.61,4.67Z"/>
    <path class="st4" d="M117.51,176.94h-6.04v-4.35h5.3v-.94h-5.3v-4.05h5.7c.42,0,.66-.21.66-.54,0-.37-.24-.57-.66-.57h-6.12c-.42,0-.67.25-.67.73v9.93c0,.46.25.75.67.75h6.46c.42,0,.67-.25.67-.62,0-.29-.25-.34-.67-.34h0Z"/>
    <path class="st4" d="M129.81,166.44c-.41-.08-.75.13-.99.77l-3.46,9.6h-.25l-3.61-9.76c-.25-.65-.66-.73-1.08-.56-.42.16-.5.62-.25,1.22l3.88,9.52c.25.6.58.72,1,.72h.25c.5,0,.83-.29,1.08-.97l3.72-9.52c.25-.6.12-.97-.29-1.02h0Z"/>
    <path class="st4" d="M142.01,176.94h-6.2v-4.35h5.04v-.94h-5.04v-4.05h5.7c.42,0,.66-.21.66-.54,0-.37-.24-.57-.66-.57h-6.12c-.42,0-.67.25-.67.73v9.93c0,.46.25.75.67.75h6.62c.42,0,.66-.25.66-.62,0-.29-.24-.34-.66-.34h0Z"/>
    <path class="st4" d="M153.71,176.84h-5.87v-9.87c0-.46-.25-.7-.66-.7s-.67.24-.67.7v10.08c0,.5.25.79.75.79h6.45c.42,0,.67-.25.67-.58,0-.29-.25-.42-.67-.42Z"/>
    <path class="st4" d="M162.61,166.14c-4.03,0-5.36,2.39-5.36,5.99s1.16,5.87,5.19,5.87,5.11-2.35,5.11-5.87-1.16-5.99-4.94-5.99ZM162.44,177.01c-3.28,0-4.11-2.2-4.11-4.96,0-2.9.99-4.97,4.15-4.97s3.95,2.16,3.95,4.97-.98,4.96-3.99,4.96h0Z"/>
    <path class="st4" d="M176.01,166.34h-2.51c-.5,0-.75.29-.75.84v10.03c0,.46.25.71.67.71s.66-.25.66-.71v-3.37h2.25c3.14,0,4.63-1.57,4.63-3.9,0-2.16-1.33-3.6-4.95-3.6h0ZM176.26,172.82h-2.34v-5.5h2.34c2.62,0,3.6,1.11,3.6,2.76,0,1.54-1.15,2.74-3.6,2.74Z"/>
    <path class="st4" d="M191.51,176.94h-5.13v-4.35h4.54v-.94h-4.54v-4.05h4.88c.42,0,.67-.21.67-.54,0-.37-.25-.57-.67-.57h-5.37c-.42,0-.67.25-.67.73v9.93c0,.46.25.75.67.75h5.62c.42,0,.67-.25.67-.62,0-.29-.25-.34-.67-.34h0Z"/>
    <path class="st4" d="M202.61,173.54c2.07-.67,2.49-2.32,2.49-3.3,0-2.26-1.42-3.62-4.31-3.62h-2.89c-.5,0-.75.29-.75.8v9.82c0,.46.25.71.67.71s.66-.25.66-.71v-3.41h2.97l2.65,3.74c.34.5.76.46,1.09.21s.33-.67-.09-1.21l-2.49-3.03h0ZM200.71,172.8h-2.32v-5.24h2.32c2.24,0,3.31,1.03,3.31,2.64,0,1.25-1.07,2.6-3.31,2.6Z"/>
  </g>
</svg>
